<svg width="57" height="56" viewBox="0 0 57 56" fill="none" xmlns="http://www.w3.org/2000/svg">
<path d="M55.6105 27.9887C55.6041 31.9766 54.7327 35.9157 53.0564 39.5341C51.3802 43.1526 48.9389 46.3644 45.9011 48.948C42.8633 51.5315 39.3012 53.4254 35.4605 54.4988C31.6198 55.5723 27.592 55.7999 23.6548 55.1658C19.7177 54.5318 15.9649 53.0512 12.6554 50.8263C9.34589 48.6014 6.55841 45.685 4.48525 42.2783C2.41208 38.8717 1.10256 35.0559 0.64703 31.0941C0.191497 27.1323 0.600791 23.1189 1.84667 19.3306C3.89674 13.1511 8.06713 7.89616 13.6196 4.49616C19.172 1.09617 25.7484 -0.229613 32.1845 0.753522C38.6205 1.73666 44.5012 4.96529 48.7854 9.86787C53.0696 14.7705 55.481 21.0308 55.5927 27.5405C55.6105 27.6914 55.6105 27.8379 55.6105 27.9887Z" fill="#5CE4CA"/>
<path d="M28.0296 56C23.5981 56.0008 19.2296 54.9506 15.2826 52.9358C11.3357 50.9209 7.9228 47.9987 5.32415 44.4091C2.7255 40.8195 1.01516 36.6648 0.333516 32.2861C-0.348127 27.9073 0.0183643 23.4293 1.4029 19.2196C1.40483 19.2094 1.40483 19.1988 1.4029 19.1886C2.66473 15.4104 4.71564 11.9438 7.41954 9.01875C10.1234 6.09373 13.4185 3.77721 17.086 2.22289C21.3081 0.433142 25.9048 -0.293368 30.473 0.10708C35.0412 0.507528 39.4415 2.0227 43.2877 4.51972C47.134 7.01674 50.3089 10.4193 52.5339 14.4291C54.759 18.4389 55.9662 22.9333 56.0498 27.5183C56.0498 27.6692 56.0498 27.8201 56.0498 27.9621C56.0527 31.6434 55.3301 35.2892 53.9232 38.6911C52.5163 42.0929 50.4527 45.1842 47.8505 47.7881C45.2482 50.392 42.1583 52.4575 38.7573 53.8666C35.3563 55.2756 31.7109 56.0006 28.0296 56ZM2.29046 19.4415C2.29238 19.4518 2.29238 19.4623 2.29046 19.4726C1.05763 23.2014 0.649101 27.1534 1.09312 31.0555C1.53714 34.9577 2.82311 38.7169 4.86216 42.0734C6.90122 45.4299 9.64474 48.3036 12.9031 50.496C16.1615 52.6884 19.8571 54.1472 23.7345 54.7716C27.6118 55.396 31.5785 55.171 35.3605 54.1123C39.1424 53.0536 42.6494 51.1864 45.639 48.6397C48.6287 46.093 51.0297 42.9275 52.6763 39.362C54.3228 35.7965 55.1755 31.916 55.1756 27.9887C55.1756 27.8422 55.1756 27.7002 55.1756 27.5449C55.0987 23.1035 53.9332 18.7487 51.7814 14.8626C49.6296 10.9764 46.5571 7.67765 42.8334 5.25552C39.1098 2.83338 34.8487 1.3619 30.4239 0.970111C25.9991 0.578326 21.5457 1.27821 17.4544 3.00838C12.1489 5.28698 7.6979 9.18198 4.73568 14.1384C3.73158 15.8126 2.91173 17.5907 2.29046 19.4415Z" fill="#003D31"/>
<path d="M30.3328 42.4914C29.7957 42.4908 29.2618 42.41 28.7485 42.2518C28.1114 42.0782 27.5254 41.7537 27.0403 41.3057C26.5551 40.8576 26.1851 40.2993 25.9616 39.6779C25.9006 39.5131 25.8691 39.3388 25.8684 39.1631C25.8684 38.1513 26.929 37.9205 27.6968 37.7563C27.8787 37.7164 28.0607 37.6764 28.2249 37.6276C29.1124 37.3658 29.6494 36.4605 30.213 35.5063C30.3239 35.3155 30.4349 35.1247 30.5503 34.9427C31.4378 33.5227 33.0266 32.4887 34.3712 33.2475C34.4732 33.3053 34.5481 33.401 34.5798 33.5138C34.6795 33.499 34.7814 33.5186 34.8685 33.5694C34.9556 33.6202 35.0228 33.6992 35.0591 33.7934C35.9999 36.2519 35.6848 39.7001 33.2618 41.5462C32.4141 42.1711 31.3859 42.503 30.3328 42.4914ZM33.4082 33.8821C32.6138 33.8821 31.7485 34.6898 31.3047 35.4131C31.1938 35.5862 31.0872 35.7726 30.9763 35.9546C30.3816 36.9664 29.7071 38.1158 28.4778 38.4797C28.2914 38.5329 28.0873 38.5773 27.8832 38.6217C27.1199 38.7903 26.7604 38.9146 26.756 39.1764C26.7629 39.2521 26.7793 39.3266 26.8048 39.3983C26.9865 39.8861 27.283 40.3231 27.6692 40.6722C28.0554 41.0214 28.52 41.2724 29.0237 41.4042C29.6431 41.6069 30.3014 41.6615 30.9457 41.5636C31.59 41.4657 32.2024 41.2181 32.7337 40.8406C34.8061 39.2607 35.0591 36.2608 34.2381 34.1084C34.2356 34.0967 34.2356 34.0846 34.2381 34.0729C34.1387 34.0884 34.037 34.0696 33.9496 34.0197C33.7847 33.9263 33.5977 33.8788 33.4082 33.8821Z" fill="#003D31"/>
<path d="M26.057 28.3903H25.9106C24.4909 28.3355 23.1427 27.7532 22.1296 26.7572C22.0851 26.7126 22.0507 26.6591 22.0285 26.6002C22.0063 26.5412 21.9969 26.4783 22.0009 26.4155C22.005 26.3533 22.0222 26.2928 22.0512 26.2378C22.0803 26.1827 22.1206 26.1344 22.1695 26.0959C22.7889 25.6118 23.5106 25.2753 24.2796 25.1123C25.0487 24.9493 25.8448 24.9639 26.6073 25.1551C26.721 25.1847 26.8184 25.2581 26.878 25.3593C27.0909 25.3177 27.3113 25.3398 27.5117 25.4226C27.7122 25.5055 27.8838 25.6455 28.0052 25.8252C28.1808 26.0533 28.2857 26.3279 28.307 26.615C28.3283 26.902 28.2651 27.1891 28.1251 27.4406C27.89 27.7622 27.5766 28.0183 27.2146 28.1845C26.8526 28.3507 26.4541 28.4216 26.057 28.3903ZM23.1636 26.482C23.9605 27.1031 24.9321 27.4585 25.9417 27.4983C26.1991 27.4983 27.0644 27.4983 27.3839 26.9746C27.4297 26.8734 27.4469 26.7615 27.4336 26.6512C27.4203 26.5409 27.377 26.4363 27.3085 26.3489C27.233 26.2468 27.1532 26.2069 27.0733 26.2246C26.9795 26.2496 26.8801 26.2432 26.7904 26.2063C26.7006 26.1695 26.6254 26.1042 26.5763 26.0205C26.5191 26.0319 26.4603 26.0319 26.4032 26.0205C25.31 25.7505 24.1544 25.9211 23.1858 26.4953L23.1636 26.482Z" fill="#003D31"/>
<path d="M48.4435 46.978C48.4096 46.9826 48.3753 46.9826 48.3414 46.978C48.2647 46.9597 48.1942 46.9212 48.1373 46.8666C48.0803 46.812 48.039 46.7432 48.0174 46.6673C47.8302 45.9998 47.6952 45.3188 47.6136 44.6304C47.0944 40.0018 49.6683 35.8303 51.9405 32.1513L52.078 31.9294C53.0292 30.3022 54.0955 28.745 55.2688 27.2698C55.3266 27.2014 55.4037 27.152 55.49 27.1283C55.5764 27.1045 55.6679 27.1074 55.7525 27.1366C55.8378 27.1654 55.9124 27.2194 55.9663 27.2915C56.0202 27.3637 56.0509 27.4505 56.0543 27.5405C56.0543 27.6958 56.0543 27.8467 56.0543 27.9842C56.0636 34.9548 53.4642 41.6765 48.7674 46.8271C48.7268 46.8733 48.6771 46.9106 48.6213 46.9366C48.5655 46.9626 48.505 46.9767 48.4435 46.978ZM55.1534 28.8496C54.3147 29.9857 53.5602 31.2016 52.828 32.3998L52.6904 32.6217C50.4937 36.172 48.0041 40.2103 48.4923 44.5372C48.5234 44.8079 48.5766 45.1807 48.6698 45.62C52.6811 40.9333 54.9688 35.0157 55.1534 28.8496Z" fill="#003D31"/>
<path d="M51.4434 25.2993C49.7413 25.2898 48.0699 24.8452 46.5879 24.0079C45.106 23.1706 43.8627 21.9684 42.9761 20.5154C42.8962 20.3823 42.8208 20.2447 42.7453 20.1071C42.5157 19.615 42.195 19.1708 41.8001 18.798C41.2192 18.4122 40.5541 18.1717 39.8608 18.0968C39.0465 18.0001 38.2665 17.7128 37.5842 17.2581C35.8313 15.9001 36.3105 13.3839 36.6966 11.3647L36.7632 11.0274C37.42 7.54376 36.5635 3.83821 34.5798 1.58825C34.5166 1.51671 34.4781 1.42669 34.4701 1.33155C34.4621 1.23642 34.485 1.14124 34.5354 1.06015C34.5854 0.979833 34.6597 0.917574 34.7475 0.882448C34.8353 0.847323 34.932 0.841171 35.0236 0.86489C40.3659 2.22468 45.1856 5.13684 48.8741 9.2337C52.5626 13.3306 54.9546 18.4284 55.748 23.8837C55.7575 23.9737 55.7392 24.0645 55.6955 24.1438C55.6519 24.2231 55.5851 24.2872 55.504 24.3275C54.5577 24.7895 53.5407 25.0896 52.4951 25.215C52.1464 25.263 51.7953 25.2912 51.4434 25.2993ZM36.0531 2.0764C37.6241 4.5305 38.2454 7.95648 37.633 11.1916L37.5709 11.5333C37.2114 13.4061 36.8076 15.5273 38.1256 16.5569C38.7032 16.9209 39.3555 17.15 40.0338 17.227C40.8709 17.3242 41.6703 17.6293 42.3592 18.1146C42.8465 18.5565 43.2417 19.0904 43.5219 19.6855L43.7438 20.0761C44.634 21.5338 45.9188 22.7096 47.4495 23.4675C48.9801 24.2253 50.6941 24.5343 52.3931 24.3585C53.2312 24.2579 54.0495 24.032 54.8205 23.6884C54.0331 18.6884 51.8559 14.0103 48.5375 10.1882C45.2191 6.36601 40.8931 3.55364 36.0531 2.07197V2.0764Z" fill="#003D31"/>
<path d="M6.68333 45.7112C6.61778 45.7108 6.55314 45.6959 6.49405 45.6675C6.43497 45.6391 6.38291 45.5979 6.34161 45.547C3.35398 41.8971 1.33544 37.5524 0.472847 32.9152C-0.389749 28.278 -0.0685193 23.4981 1.4068 19.018C1.43368 18.9258 1.48974 18.8448 1.56656 18.7872C2.42409 18.1275 3.35118 17.5635 4.3313 17.1053L4.40674 17.0653C4.85801 16.9188 5.25316 16.6368 5.53838 16.2576C5.87565 15.6364 5.31649 14.7754 4.58869 14.3627C4.44563 14.2794 4.29741 14.2053 4.14491 14.1408C4.08573 14.1166 4.03249 14.0798 3.98883 14.0331C3.94517 13.9864 3.91213 13.9308 3.89196 13.8701C3.87169 13.8095 3.86476 13.7452 3.87165 13.6816C3.87855 13.618 3.8991 13.5567 3.9319 13.5018C6.9882 8.39689 11.575 4.38458 17.0411 2.03454C17.1061 2.0073 17.1766 1.99591 17.2468 2.00131C17.317 2.00671 17.3849 2.02875 17.445 2.0656C20.4312 3.88251 23.2792 5.9176 25.9655 8.15424C27.856 9.72522 29.6666 11.5048 30.1326 13.8657C30.2605 14.6019 30.2213 15.3575 30.0177 16.0765C29.8141 16.7955 29.4515 17.4595 28.9566 18.0194C28.6168 18.426 28.1854 18.7462 27.6979 18.9537C27.2103 19.1613 26.6805 19.2502 26.1519 19.2132C25.8015 19.1735 25.4554 19.1022 25.1179 19.0002C24.8412 18.9207 24.5595 18.8599 24.2747 18.8183C23.8798 18.7868 23.4828 18.8416 23.1112 18.9787C22.7395 19.1159 22.4022 19.3322 22.1224 19.6126C21.6544 20.0754 21.2862 20.6292 21.0404 21.2398C20.7946 21.8504 20.6766 22.5049 20.6934 23.1628C20.7644 24.938 21.581 26.6643 22.402 28.3151C22.6239 28.7589 22.8458 29.2249 23.0499 29.6775C23.4626 30.5873 23.8487 31.6568 23.5869 32.7085C23.0321 34.8964 20.2985 35.3712 19.1491 35.4999L18.5766 35.5487C17.1166 35.673 15.6077 35.8061 14.6802 36.7602C14.2631 37.204 14.2364 38.7705 14.2364 40.1684C14.2364 42.2897 14.2364 44.4864 13.0072 45.1432C12.3193 45.5204 11.4007 45.3252 10.2069 44.5485C9.97631 44.3953 9.75546 44.2278 9.5457 44.0471C8.9821 43.6033 8.60932 43.306 8.21436 43.3992C7.70402 43.5145 7.47325 44.2113 7.25136 44.8903C7.21142 45.0189 7.17148 45.1432 7.1271 45.2675L7.06054 45.4405C7.03293 45.5129 6.98686 45.5768 6.92692 45.6258C6.86697 45.6749 6.79523 45.7074 6.71883 45.7201L6.68333 45.7112ZM8.40519 42.4805C9.08861 42.4805 9.64333 42.9243 10.1448 43.3681C10.3276 43.528 10.5203 43.6762 10.7217 43.8119C11.6093 44.3799 12.2528 44.5752 12.6211 44.371C13.3755 43.9627 13.3799 41.8637 13.3844 40.1729C13.3844 38.3978 13.3844 36.8357 14.0589 36.1478C15.2216 34.9585 16.9746 34.8165 18.4967 34.6745L19.0603 34.6256C19.8103 34.5502 22.2955 34.1819 22.7215 32.4999C22.9168 31.7189 22.6061 30.8624 22.2378 30.0547C22.0336 29.6109 21.8162 29.1672 21.5987 28.7234C20.7556 26.9882 19.8813 25.1953 19.8236 23.2161C19.8002 22.4293 19.9399 21.6462 20.2339 20.916C20.528 20.1859 20.97 19.5245 21.5322 18.9736C21.9016 18.6038 22.3482 18.3202 22.8399 18.143C23.3316 17.9658 23.8564 17.8994 24.3768 17.9484C24.7105 17.9877 25.0401 18.056 25.362 18.1526C25.6518 18.2407 25.9488 18.303 26.2495 18.339C26.6396 18.3627 27.0298 18.2948 27.3889 18.1407C27.748 17.9866 28.0661 17.7505 28.3175 17.4514C28.7182 16.9924 29.012 16.4502 29.1777 15.8639C29.3435 15.2776 29.3771 14.6618 29.2761 14.0609C28.8678 11.9752 27.1815 10.3288 25.4152 8.86429C22.8171 6.68687 20.0644 4.70092 17.1787 2.92209C12.1103 5.14218 7.83261 8.84437 4.90821 13.5417L4.99696 13.5905C6.08422 14.2029 6.88746 15.5609 6.2928 16.697C5.9251 17.2547 5.3839 17.6758 4.75288 17.8952L4.67744 17.9307C3.79584 18.3419 2.9599 18.8447 2.18341 19.4307C0.820901 23.6268 0.501629 28.0917 1.25324 32.439C2.00485 36.7863 3.80469 40.8848 6.49694 44.3799C6.75433 43.6033 7.11823 42.7468 8.0191 42.5427C8.13917 42.5083 8.26272 42.4874 8.38743 42.4805H8.40519Z" fill="#003D31"/>
</svg>
