<svg width="34" height="35" viewBox="0 0 34 35" fill="none" xmlns="http://www.w3.org/2000/svg">
<path d="M15.3343 5.23865C15.2696 5.30247 15.2333 5.38902 15.2333 5.47928V6.58401H10.8852L10.9002 6.56428C10.8087 6.56428 10.721 6.60013 10.6563 6.66395C10.5917 6.72777 10.5553 6.81433 10.5553 6.90458V9.12391C10.5567 9.2133 10.5936 9.2986 10.6581 9.36135C10.7226 9.42411 10.8096 9.45928 10.9002 9.45927H19.3964C19.308 9.86582 19.1979 10.2675 19.0666 10.6626C18.9031 11.1565 18.6992 11.6365 18.4569 12.0978C18.2282 12.5172 17.9762 12.9239 17.7022 13.3159L17.0675 14.1544C16.9691 14.0171 16.874 13.8777 16.7822 13.7365C16.1395 12.7475 15.6586 11.6636 15.3582 10.5246C15.3575 10.5219 15.3567 10.5193 15.3559 10.5166C15.3435 10.4772 15.3239 10.4403 15.298 10.4078C15.2945 10.4035 15.291 10.3992 15.2873 10.3951C15.2617 10.3661 15.2311 10.3416 15.197 10.3227C15.1922 10.3201 15.1872 10.3175 15.1822 10.315C15.1473 10.2979 15.1096 10.2868 15.0707 10.2823C15.0652 10.2817 15.0596 10.2812 15.0541 10.2808C15.0152 10.2782 14.976 10.2822 14.9384 10.2927L12.8044 10.8796C12.7613 10.8916 12.7211 10.9118 12.686 10.9391C12.651 10.9664 12.6217 11.0002 12.5998 11.0387C12.578 11.0772 12.5641 11.1195 12.5589 11.1633C12.5537 11.2071 12.5573 11.2515 12.5695 11.2939C12.8407 12.2745 13.2177 13.2235 13.694 14.1248C14.1116 14.8824 14.5739 15.6152 15.0783 16.3195C14.4736 16.8916 13.9139 17.3847 13.3341 17.8779C12.6544 18.4155 11.9847 18.9333 11.1551 19.4956C11.1152 19.5212 11.081 19.5547 11.0549 19.594C11.0287 19.6333 11.0111 19.6775 11.0031 19.7238C10.9952 19.7701 10.997 19.8176 11.0085 19.8632C11.02 19.9088 11.041 19.9515 11.0701 19.9887L12.3346 21.7938C12.3605 21.8332 12.3945 21.8669 12.4343 21.8927C12.4741 21.9185 12.5189 21.9359 12.5658 21.9437C12.6128 21.9516 12.6609 21.9498 12.7071 21.9384C12.71 21.9377 12.7129 21.937 12.7157 21.9362C12.7587 21.9244 12.799 21.9046 12.8343 21.8777C12.8868 21.8419 12.9388 21.8063 12.9903 21.7708C13.7632 21.2389 14.4311 20.7384 15.0684 20.2206C15.1111 20.1839 15.1538 20.1471 15.1965 20.11C15.4529 19.8878 15.7103 19.6588 15.9744 19.4229C16.0184 19.3836 16.0627 19.3441 16.1071 19.3044C16.1374 19.2773 16.1678 19.2501 16.1983 19.2228C16.4118 19.0321 16.6306 18.8369 16.8576 18.6374C17.4759 19.3562 18.1438 20.0318 18.8567 20.6595C19.7337 21.3985 20.6659 22.0711 21.6455 22.6717C21.6841 22.6997 21.7282 22.7195 21.775 22.7298C21.8219 22.74 21.8704 22.7405 21.9174 22.7312C21.9203 22.7307 21.9233 22.73 21.9262 22.7294C21.97 22.7196 22.0114 22.7014 22.0482 22.6758C22.0531 22.6724 22.0579 22.6689 22.0626 22.6653C22.0956 22.6398 22.1236 22.6085 22.1452 22.573L23.3397 20.7335C23.3427 20.7288 23.3456 20.7241 23.3484 20.7193C23.3677 20.6858 23.381 20.6493 23.3878 20.6112C23.3888 20.6058 23.3896 20.6004 23.3903 20.5949C23.3951 20.5567 23.3933 20.5179 23.3847 20.4802C23.3841 20.4775 23.3835 20.4748 23.3828 20.4721C23.3727 20.432 23.3551 20.3941 23.331 20.3603C23.3278 20.3558 23.3244 20.3513 23.321 20.347C23.297 20.3166 23.2678 20.2905 23.2347 20.2699C23.1789 20.2355 23.1231 20.2009 23.0676 20.166C22.2344 19.6425 21.4401 19.0608 20.6909 18.4254C20.6084 18.3524 20.5267 18.2787 20.4456 18.2042C19.8783 17.6831 19.3459 17.126 18.8517 16.5365C18.901 16.4791 18.95 16.422 18.9986 16.365C19.3384 15.9661 19.6582 15.5723 19.9512 15.1408C20.0002 15.0731 20.0486 15.0051 20.0965 14.9367C20.4318 14.4579 20.7404 13.9613 21.0207 13.4491C21.0644 13.3671 21.1071 13.2846 21.1489 13.2017C21.4416 12.6214 21.6895 12.0199 21.8903 11.4024V11.3728C21.9154 11.2946 21.9397 11.2162 21.9632 11.1376C22.128 10.5872 22.2556 10.0265 22.3451 9.45926L23.1198 9.45927C23.2099 9.45927 23.2964 9.42394 23.3601 9.36105C23.3681 9.35319 23.3756 9.34497 23.3827 9.33645C23.4322 9.27677 23.4597 9.20173 23.4597 9.12391V6.92431C23.4597 6.92153 23.4597 6.91875 23.4597 6.91598C23.4592 6.87435 23.451 6.83313 23.4352 6.79445C23.4342 6.79187 23.4331 6.78931 23.432 6.78676C23.4153 6.74852 23.3915 6.71366 23.3619 6.68397C23.3579 6.68001 23.3539 6.67616 23.3498 6.67241C23.3208 6.64615 23.2874 6.62502 23.251 6.61C23.2458 6.60786 23.2406 6.60584 23.2353 6.60396C23.1983 6.59077 23.1592 6.58401 23.1198 6.58401H18.242V5.47928C18.242 5.4765 18.242 5.47372 18.242 5.47095C18.2415 5.42932 18.2333 5.3881 18.2175 5.34942C18.2165 5.34684 18.2154 5.34428 18.2143 5.34173C18.1976 5.30349 18.1738 5.26863 18.1442 5.23894C18.1402 5.23498 18.1362 5.23113 18.1321 5.22738C18.1031 5.20112 18.0697 5.17999 18.0333 5.16497C18.0281 5.16283 18.0229 5.16081 18.0176 5.15893C17.9806 5.14574 17.9415 5.13898 17.9021 5.13898H15.5781C15.4867 5.13898 15.399 5.17483 15.3343 5.23865Z" fill="#FFBABA"/>
<path fill-rule="evenodd" clip-rule="evenodd" d="M16.6976 27.8698L24.3792 34.6067L24.3543 34.587C24.5546 34.7835 24.8091 34.9175 25.0861 34.9723C25.3631 35.0271 25.6503 35.0002 25.9119 34.8951C26.1736 34.7899 26.3981 34.6111 26.5574 34.3809C26.7168 34.1507 26.804 33.8794 26.8082 33.6006V27.8698H30.6565C31.5408 27.8647 32.3874 27.5161 33.0132 26.8995C33.6389 26.2829 33.9934 25.448 34 24.5754V3.30927C33.9944 2.4835 33.6752 1.68983 33.1054 1.08501L33.0104 0.986368C32.3892 0.362747 31.5426 0.00797565 30.6565 0H3.34353C2.50998 0.00705234 1.70936 0.322019 1.09952 0.8828L0.999559 0.971573C0.367304 1.58639 0.00785481 2.4235 0 3.2994V24.5754C0.00655457 25.448 0.361079 26.2829 0.986839 26.8995C1.6126 27.5161 2.45925 27.8647 3.34353 27.8698H16.6976ZM23.9294 30.4393L18.197 25.3941C17.9346 25.1621 17.5947 25.0339 17.2424 25.034H3.34353C3.2823 25.0347 3.22156 25.0233 3.16487 25.0005C3.10817 24.9776 3.05667 24.9439 3.01337 24.9012C2.97008 24.8584 2.93587 24.8076 2.91275 24.7517C2.88963 24.6957 2.87806 24.6358 2.87873 24.5754V3.27968C2.87946 3.21977 2.89219 3.1606 2.91621 3.10558C2.94023 3.05056 2.97505 3.00078 3.01867 2.95911H3.07364C3.14489 2.88301 3.2399 2.83266 3.34353 2.81608H30.6565C30.7789 2.82283 30.8945 2.87373 30.9813 2.95911L31.0163 3.01336C31.0828 3.09479 31.1213 3.19496 31.1263 3.2994V24.5754C31.1252 24.6357 31.1118 24.6951 31.0869 24.7502C31.062 24.8053 31.0261 24.8549 30.9813 24.8959C30.9391 24.939 30.8887 24.9733 30.8329 24.997C30.7771 25.0207 30.7172 25.0333 30.6565 25.034H25.3688C24.9871 25.034 24.621 25.1837 24.351 25.45C24.0811 25.7164 23.9294 26.0777 23.9294 26.4544V30.4393Z" fill="#FFBABA"/>
</svg>
