<svg width="34" height="35" viewBox="0 0 34 35" fill="none" xmlns="http://www.w3.org/2000/svg">
<path d="M15.815 25.3819L10.075 30.4248V26.4418C10.075 26.0652 9.92329 25.7041 9.65323 25.4379C9.38318 25.1716 9.01691 25.0221 8.635 25.0221H3.345C3.22148 25.0178 3.10392 24.9687 3.015 24.884C2.97114 24.8426 2.93616 24.7928 2.91211 24.7378C2.88806 24.6828 2.87545 24.6235 2.875 24.5636V3.2929C2.88332 3.17317 2.93565 3.06055 3.02217 2.97616C3.1087 2.89176 3.22348 2.84137 3.345 2.83445H21.675V0H3.345C2.46153 0.0089594 1.61674 0.358611 0.991533 0.974079C0.366326 1.58955 0.0104091 2.4219 0 3.2929V24.5636C0.00395501 25.4366 0.357802 26.2726 0.984398 26.8895C1.61099 27.5063 2.45953 27.8539 3.345 27.8565H7.2V33.5994C7.20282 33.878 7.28904 34.1496 7.44785 34.3801C7.60665 34.6106 7.83096 34.7898 8.09265 34.8951C8.35433 35.0004 8.64173 35.0272 8.91878 34.972C9.19584 34.9169 9.45022 34.7824 9.65 34.5853L17.31 27.8565H30.66C31.5446 27.8526 32.3919 27.5044 33.0174 26.8877C33.6429 26.271 33.9961 25.4357 34 24.5636V21.6848H31.135V24.5636C31.1357 24.624 31.1241 24.6839 31.101 24.7398C31.0778 24.7957 31.0436 24.8466 31.0003 24.8893C30.957 24.932 30.9055 24.9657 30.8487 24.9885C30.792 25.0113 30.7313 25.0227 30.67 25.0221H16.77C16.4178 25.0233 16.0782 25.1512 15.815 25.3819Z" fill="#FFBABA"/>
<path fill-rule="evenodd" clip-rule="evenodd" d="M14.8 7.06395L10.18 20.8221H13.82L14.575 18.318H19.4L20.175 20.8221H23.835L19.215 7.06395H14.8ZM17 9.80967L18.58 15.4441H15.395L17 9.80967Z" fill="#FFBABA"/>
</svg>
